<?xml version="1.0" encoding="UTF-8"?>
<svg version="1.1" xmlns="http://www.w3.org/2000/svg" width="512" height="512">
<path d="M0 0 C1.29744141 0.24943359 1.29744141 0.24943359 2.62109375 0.50390625 C41.0699719 7.95096299 76.41658378 24.26758404 106 50 C106.56332031 50.48887695 107.12664062 50.97775391 107.70703125 51.48144531 C138.22017219 78.1895466 159.52107758 115.41975084 164 156 C164.31334688 161.48253287 164.39019838 166.94704703 164.375 172.4375 C164.37418427 173.55209595 164.37418427 173.55209595 164.37335205 174.68920898 C164.24334287 213.50059023 149.65849456 248.93474734 124 278 C123.56252441 278.50305664 123.12504883 279.00611328 122.67431641 279.52441406 C93.80006557 312.58377529 53.48798007 333.79900467 11.0625 343.75 C9.8871167 344.0298877 9.8871167 344.0298877 8.68798828 344.31542969 C-8.95970705 348.20917748 -26.57695184 349.44799628 -44.59765625 349.40405273 C-46.75862985 349.40977407 -48.91960044 349.41674504 -51.08056641 349.42485046 C-56.87291487 349.44258245 -62.66511027 349.44165412 -68.45747757 349.43590808 C-73.30938756 349.43279328 -78.1612691 349.43893248 -83.01317501 349.44494683 C-94.45021429 349.45891868 -105.88717871 349.45748655 -117.32421875 349.44604492 C-129.11141629 349.43451356 -140.89838763 349.44873994 -152.68555546 349.4754414 C-162.83804198 349.49757581 -172.99045733 349.50424256 -183.14296627 349.49836498 C-189.19368368 349.49499575 -195.24425538 349.49741119 -201.29495239 349.51461601 C-206.96858239 349.53005162 -212.64187424 349.52616722 -218.31549072 349.50731087 C-220.3964125 349.50361861 -222.47735922 349.50675193 -224.55825806 349.51719666 C-227.39738519 349.53036137 -230.23538454 349.51890008 -233.07446289 349.50120544 C-233.89798783 349.51081045 -234.72151278 349.52041546 -235.56999302 349.53031152 C-240.84650642 349.46259415 -243.79062243 348.45272901 -248 345 C-252.41415841 340.35351746 -252.46758261 336.11206934 -252.53125 330 C-251.19493582 322.45375519 -244.51355748 317.25180983 -239.296875 312.1015625 C-238.45908508 311.26660248 -237.62129517 310.43164246 -236.75811768 309.57138062 C-234.09342084 306.91783717 -231.42183814 304.27135085 -228.75 301.625 C-226.9370405 299.82207652 -225.1245353 298.01869609 -223.3125 296.21484375 C-218.88024898 291.80458888 -214.44233078 287.40010039 -210 283 C-211.47784246 279.05962795 -212.96133163 276.74231395 -215.9375 273.75 C-244.84409217 242.29555114 -253.61879665 199.31633969 -252.10223389 157.97467041 C-250.80280467 132.87590419 -240.47881264 106.37758816 -226 86 C-225.33613281 85.06414062 -224.67226562 84.12828125 -223.98828125 83.1640625 C-213.22661946 68.44164548 -201.38018893 55.25249784 -187 44 C-186.4534375 43.57170898 -185.906875 43.14341797 -185.34375 42.70214844 C-158.09197879 21.53557387 -126.62327661 8.13839969 -93 1 C-92.01193359 0.78682129 -91.02386719 0.57364258 -90.00585938 0.35400391 C-61.4650615 -5.52286515 -28.56074633 -5.93652174 0 0 Z " fill="#2196F3" transform="translate(252,3)"/>
<path d="M0 0 C4.86139082 1.490947 7.79205432 4.24917161 11.375 7.6875 C11.9529834 8.23422363 12.5309668 8.78094727 13.12646484 9.34423828 C14.26135836 10.42093213 15.39315993 11.50089668 16.52148438 12.58447266 C17.67390109 13.68779368 18.84181954 14.77493078 20.015625 15.85546875 C29.72908303 25.02667063 37.41627858 36.47171414 44 48 C44.3309668 48.5676709 44.66193359 49.1353418 45.00292969 49.72021484 C63.74850429 82.05408873 71.34119983 124.44277321 62 161 C61.79600586 161.79905762 61.59201172 162.59811523 61.38183594 163.42138672 C58.3065748 175.08007322 54.2789069 186.16326732 49 197 C48.45601563 198.11761719 47.91203125 199.23523438 47.3515625 200.38671875 C40.84223409 213.05393297 32.1610852 224.15716969 23 235 C24.42594853 238.25575752 26.15741943 240.39254314 28.68359375 242.87890625 C29.43777588 243.62648193 30.19195801 244.37405762 30.96899414 245.14428711 C31.78360107 245.94229736 32.59820801 246.74030762 33.4375 247.5625 C34.27337646 248.39080322 35.10925293 249.21910645 35.97045898 250.07250977 C38.64223702 252.719847 41.32031462 255.36066843 44 258 C47.52655059 261.47344369 51.04651233 264.95336802 54.5625 268.4375 C55.7844104 269.63451538 55.7844104 269.63451538 57.03100586 270.85571289 C57.78518799 271.60328857 58.53937012 272.35086426 59.31640625 273.12109375 C59.98099854 273.7752124 60.64559082 274.42933105 61.33032227 275.10327148 C65.44134479 279.77333056 65.42993137 284.05290078 65.3125 290.0859375 C64.74553645 295.37287261 62.38077092 297.88148719 58.37925339 301.12297249 C54.33153758 303.37130165 51.0640704 303.56968109 46.5569458 303.53244019 C45.72078507 303.54135257 44.88462434 303.55026495 44.02312541 303.55944741 C41.22775933 303.58438083 38.43315984 303.58098513 35.63769531 303.57763672 C33.62975003 303.58964989 31.6218144 303.60338059 29.6138916 303.61869812 C24.15809846 303.65515218 18.70250648 303.66674089 13.24660587 303.67336798 C7.5145031 303.68396454 1.78251147 303.71546867 -3.94952393 303.74417114 C-13.59687172 303.78933017 -23.24417028 303.81901366 -32.89160156 303.83886719 C-43.98282709 303.86181282 -55.07380653 303.90570869 -66.16491008 303.96193302 C-76.88089907 304.0160171 -87.59689952 304.05785045 -98.31296539 304.09332657 C-102.84655071 304.10836366 -107.38009927 304.12697628 -111.91365814 304.14852524 C-169.67054779 304.40975428 -224.35937402 299.88617393 -273 265 C-273.58668457 264.58008789 -274.17336914 264.16017578 -274.77783203 263.72753906 C-283.0406249 257.73905948 -290.63771747 251.05635209 -298 244 C-298.58539551 243.44715332 -299.17079102 242.89430664 -299.77392578 242.32470703 C-307.2093918 235.27676991 -314.07147501 228.01164287 -320.3125 219.875 C-320.85769287 219.16456543 -321.40288574 218.45413086 -321.96459961 217.72216797 C-324.5792824 214.21721104 -326.40870484 211.09269591 -328 207 C-326.3819899 206.9845388 -326.3819899 206.9845388 -324.73129272 206.96876526 C-314.46623162 206.87015866 -304.20121952 206.76735909 -293.93623924 206.66066074 C-288.6614493 206.60596163 -283.3866536 206.552639 -278.11181641 206.50268555 C-273.00239851 206.45424426 -267.89303308 206.40189577 -262.78367996 206.34705925 C-260.85369839 206.32698975 -258.92370267 206.30822821 -256.99369431 206.29092598 C-230.70783546 206.15629995 -230.70783546 206.15629995 -204.5625 203.75 C-203.6240625 203.62141602 -202.685625 203.49283203 -201.71875 203.36035156 C-155.54499073 196.70481303 -110.86683387 179.2267058 -75 149 C-74.19199951 148.32517578 -74.19199951 148.32517578 -73.36767578 147.63671875 C-62.13157911 138.23869251 -52.10580083 128.52476992 -43 117 C-42.20722656 116.03578125 -41.41445313 115.0715625 -40.59765625 114.078125 C-33.3047521 104.99943863 -27.56970039 95.20925858 -22 85 C-21.65308105 84.3694873 -21.30616211 83.73897461 -20.94873047 83.08935547 C-6.92448067 57.33390338 -1.33595319 29.03940363 0 0 Z " fill="#63B5F6" transform="translate(447,177)"/>
<path d="M0 0 C0.81826948 -0.00297112 1.63653896 -0.00594224 2.47960448 -0.0090034 C5.23712526 -0.0177144 7.99460276 -0.01920068 10.75213623 -0.02069092 C12.72296746 -0.02531744 14.69379779 -0.03034187 16.66462708 -0.03573608 C22.03044252 -0.0488791 27.39624544 -0.05530887 32.76207447 -0.05974674 C36.11266309 -0.06267472 39.46324826 -0.06677903 42.81383514 -0.07125092 C53.2918001 -0.08493156 63.76975722 -0.09459514 74.24773049 -0.09845281 C86.3524482 -0.10293352 98.45705298 -0.1204797 110.56173635 -0.1494534 C119.91126464 -0.17105717 129.26076114 -0.18115641 138.61031413 -0.18249393 C144.19741955 -0.18354299 149.78441891 -0.18947231 155.37149811 -0.20731354 C160.62784822 -0.22377137 165.88401228 -0.22596081 171.14037895 -0.21717453 C173.06970912 -0.2164029 174.99904919 -0.22076342 176.92835426 -0.23063278 C179.56256596 -0.24331767 182.19611531 -0.23749433 184.83032227 -0.22705078 C185.59356158 -0.23510719 186.3568009 -0.24316359 187.14316869 -0.25146413 C192.58927399 -0.20097851 196.77620965 0.90667212 200.81365967 4.67559814 C205.00277394 10.15367065 205.79065244 13.32669708 205.16912842 20.14044189 C203.34378251 25.41366342 200.56193639 27.93735275 196.16912842 31.14044189 C192.47651918 32.37131164 189.06357178 32.28853457 185.21800232 32.28761292 C183.98931646 32.29312795 183.98931646 32.29312795 182.73580867 32.29875439 C179.98139789 32.30979845 177.22702483 32.31363628 174.47259521 32.31744385 C172.50161621 32.32370788 170.53063839 32.33035462 168.55966187 32.33735657 C163.1980415 32.35477006 157.83643006 32.36531897 152.47478843 32.3735621 C149.12637219 32.3787108 145.77795873 32.38478655 142.42954445 32.39107323 C131.95692443 32.41012504 121.48431147 32.42435702 111.01167744 32.4326852 C98.91542655 32.44246296 86.81935838 32.46879668 74.72317189 32.50918609 C65.37787045 32.53932163 56.03262147 32.55415158 46.68727237 32.55746621 C41.10349698 32.55981932 35.51991682 32.56881398 29.93619347 32.59392738 C24.68389506 32.61716868 19.43192096 32.62145716 14.1795845 32.611166 C12.25186015 32.61066959 10.32412005 32.61702077 8.39644432 32.63072205 C5.76430776 32.64838374 3.13334235 32.64136334 0.50120544 32.62818909 C-0.26135176 32.63915833 -1.02390895 32.65012758 -1.80957395 32.66142923 C-6.96448185 32.59915092 -9.85065507 31.37111191 -13.83087158 28.14044189 C-18.13314748 23.37305509 -19.19369661 19.70296895 -19.11212158 13.42169189 C-18.5226777 8.64064703 -15.68266362 5.89083012 -12.20587158 2.82794189 C-8.08177805 -0.10233509 -4.92213205 -0.00552337 0 0 Z " fill="#F9F9F9" transform="translate(114.83087158203125,127.85955810546875)"/>
<path d="M0 0 C1.14681747 -0.00571014 2.29363495 -0.01142029 3.47520447 -0.01730347 C5.371856 -0.01898026 5.371856 -0.01898026 7.30682373 -0.02069092 C8.64712155 -0.02531847 9.98741805 -0.03034305 11.32771301 -0.03573608 C14.97457485 -0.04887034 18.62141826 -0.05530733 22.26830006 -0.05974674 C24.5468273 -0.06267653 26.8253495 -0.06678121 29.10387421 -0.07125092 C36.23299265 -0.08493012 43.36209958 -0.09459403 50.49123025 -0.09845281 C58.72009632 -0.10293121 66.94879609 -0.12046713 75.17761159 -0.1494534 C81.53778144 -0.1710791 87.89790454 -0.1811576 94.25811076 -0.18249393 C98.05671372 -0.18354156 101.85516044 -0.18943999 105.65372467 -0.20731354 C109.22915235 -0.22380912 112.80430663 -0.22594267 116.37975883 -0.21717453 C118.31329716 -0.21603863 120.24682646 -0.22974557 122.18031311 -0.243927 C128.8813934 -0.21170229 134.09968252 -0.12597004 139.24334717 4.67559814 C143.43246144 10.15367065 144.22033994 13.32669708 143.59881592 20.14044189 C141.77347001 25.41366342 138.99162389 27.93735275 134.59881592 31.14044189 C131.49330582 32.17561193 129.33427646 32.27369081 126.07737732 32.28761292 C124.35508911 32.29834587 124.35508911 32.29834587 122.5980072 32.30929565 C121.33716812 32.31198456 120.07632904 32.31467346 118.77728271 32.31744385 C117.436837 32.32370992 116.09639301 32.33035685 114.75595093 32.33735657 C110.35332444 32.35838067 105.95069767 32.36875678 101.54803467 32.37872314 C100.03164972 32.38277119 98.51526496 32.38688813 96.99888039 32.39107323 C89.87510789 32.41012056 82.75134574 32.42435306 75.62755269 32.4326852 C67.40713767 32.44245906 59.18699182 32.46878417 50.96667165 32.50918609 C44.61072903 32.53935189 38.25486355 32.55415446 31.89885074 32.55746621 C28.10355961 32.55981601 24.30855618 32.56876709 20.5133419 32.59392738 C16.94194762 32.61722184 13.37103021 32.62143619 9.79957962 32.611166 C7.86841498 32.61043526 5.93727448 32.62951649 4.00621033 32.64923096 C-2.41105837 32.61070567 -6.57916077 32.5712408 -11.40118408 28.14044189 C-15.70345998 23.37305509 -16.76400911 19.70296895 -16.68243408 13.42169189 C-16.0929902 8.64064703 -13.25297612 5.89083012 -9.77618408 2.82794189 C-6.20336786 0.28936195 -4.35338166 0.01294145 0 0 Z " fill="#F9F9F9" transform="translate(112.40118408203125,191.85955810546875)"/>
</svg>
